PathFileType	4	(X/Y/Z)	C:\Users\Basilio\Documents\Thesis Gigler\squatting_fais\c3dfiles\047\SLS_pre_front2\markers_experimental.trc
DataRate	CameraRate	NumFrames	NumMarkers	Units	OrigDataRate	OrigDataStartFrame	OrigNumFrames
200.000000	200.000000	4	60	mm	200.000000	629	1258
Frame#	Time	FHD			LBHD			RBHD			C7			T10			CLAV			LSHO			LUUPA			LMUPA			LDUPA			LLEP			LMEP			LRAD			LUL			LRFIN			RSHO			RUPA1			RMUPA			RDUPA			RLEP			RMEP			RRAD			RUL			RUFIN			LASI			RASI			USACR			LSACR			RSACR			LTHI1			LTHI2			LTHI3			LTHI4			LLFC			LMFC			LTIB1			LTIB2			LTIB3			LTIB4			LLMAL			LMMAL			LMT1			LMT2			LMT5			RTHI			RTHI2			RTHI3			RTHI4			RLFC			RMFC			RTIB1			RTIB2			RTIB3			RTIB4			RLMAL			RMMAL			RHEE			RMT1			RMT2			RMT5			
		X1	Y1	Z1	X2	Y2	Z2	X3	Y3	Z3	X4	Y4	Z4	X5	Y5	Z5	X6	Y6	Z6	X7	Y7	Z7	X8	Y8	Z8	X9	Y9	Z9	X10	Y10	Z10	X11	Y11	Z11	X12	Y12	Z12	X13	Y13	Z13	X14	Y14	Z14	X15	Y15	Z15	X16	Y16	Z16	X17	Y17	Z17	X18	Y18	Z18	X19	Y19	Z19	X20	Y20	Z20	X21	Y21	Z21	X22	Y22	Z22	X23	Y23	Z23	X24	Y24	Z24	X25	Y25	Z25	X26	Y26	Z26	X27	Y27	Z27	X28	Y28	Z28	X29	Y29	Z29	X30	Y30	Z30	X31	Y31	Z31	X32	Y32	Z32	X33	Y33	Z33	X34	Y34	Z34	X35	Y35	Z35	X36	Y36	Z36	X37	Y37	Z37	X38	Y38	Z38	X39	Y39	Z39	X40	Y40	Z40	X41	Y41	Z41	X42	Y42	Z42	X43	Y43	Z43	X44	Y44	Z44	X45	Y45	Z45	X46	Y46	Z46	X47	Y47	Z47	X48	Y48	Z48	X49	Y49	Z49	X50	Y50	Z50	X51	Y51	Z51	X52	Y52	Z52	X53	Y53	Z53	X54	Y54	Z54	X55	Y55	Z55	X56	Y56	Z56	X57	Y57	Z57	X58	Y58	Z58	X59	Y59	Z59	X60	Y60	Z60	

630	3.145	-59.46815109252931	1387.726806640625	-1106.73193359375	-238.5838012695313	1366.80615234375	-1137.99462890625	-220.1881408691407	1371.16552734375	-990.5988769531252	-293.5725097656251	1219.692016601563	-1059.49853515625	-438.9944458007814	956.2573852539065	-1014.930847167969	-160.4527587890625	1121.564575195313	-1079.764038085938	-229.8535614013672	1186.521484375	-1214.217895507813	-154.3971557617188	1118.656982421875	-1348.919067382813	-121.6556777954102	1156.77734375	-1340.950927734375	-89.78343200683595	1121.64013671875	-1373.989013671875	-27.29919815063477	1137.951171875	-1392.4755859375	-1.647480964660645	1076.404907226563	-1352.289672851563	244.4447174072266	1135.650146484375	-1388.762329101563	226.7145538330079	1153.746826171875	-1461.9970703125	319.8494567871094	1168.868408203125	-1415.126098632813	-187.0477905273438	1201.407836914063	-943.168640136719	-61.96059036254884	1139.10791015625	-835.1496582031252	-34.14751434326173	1169.354736328125	-863.1718750000002	6.829466342926027	1131.20068359375	-839.8820800781252	75.11924743652345	1138.849853515625	-854.933044433594	75.84090423583986	1069.625	-898.432067871094	329.1183471679688	1118.72216796875	-946.4177856445315	333.1941833496094	1137.700561523438	-875.623474121094	410.3070068359376	1139.540405273438	-945.2734375000002	-338.4386596679688	706.3604736328126	-1085.251342773438	-328.2943115234376	747.4714965820314	-862.9863281250002	-508.5158691406251	810.101501464844	-981.738952636719	-523.9300537109376	777.9959716796877	-1004.739013671875	-516.7687988281251	781.969909667969	-949.8240356445315	-345.7733764648438	581.5156860351564	-1157.30810546875	-261.9113769531251	571.1079711914064	-1165.43408203125	-236.6705932617188	611.3807983398439	-1154.586791992188	-231.9154052734376	519.2780761718751	-1168.952514648438	-108.5882263183594	414.5649414062501	-1151.099365234375	-63.61164855957033	434.5112609863282	-1025.363525390625	-147.6417541503907	273.8087158203126	-1027.604736328125	-179.122802734375	225.5377807617188	-1092.190795898438	-167.4214324951172	222.5063476562501	-1048.620483398438	-226.8410186767579	177.3767700195313	-1010.250183105469	-322.1653747558594	114.2336349487305	-1053.55419921875	-297.4297180175782	138.1366577148438	-966.383972167969	-190.0116577148438	62.33948516845705	-978.7351684570315	-192.0003356933594	56.90773391723634	-1022.091125488281	-237.7936096191407	43.86682510375977	-1067.643188476563	-307.5726623535157	604.6360473632814	-755.3553466796876	-240.5245819091797	606.0395507812501	-761.1651611328126	-224.6459503173829	631.2481689453126	-774.6043090820315	-189.715805053711	538.8201904296876	-764.5811157226564	-65.28881072998048	464.7559204101564	-788.2893066406252	-54.41747283935548	464.0600891113282	-913.599792480469	48.71759033203126	397.9929809570314	-811.711120605469	65.7883758544922	300.7228088378907	-762.1318969726564	94.83375549316408	328.6560058593751	-785.8020629882815	130.4274444580078	296.6848144531251	-820.6318359375002	190.0950622558594	149.5206909179688	-780.0363769531252	190.0671844482422	164.6638793945313	-870.778259277344	159.7001190185547	81.4640350341797	-821.3262939453127	337.3166809082032	181.8077087402344	-872.3939208984377	342.1430358886719	195.5025787353516	-830.484802246094	324.2641601562501	156.2495422363282	-766.6434936523439	
631	3.15	-59.35829162597658	1387.640991210938	-1106.584106445313	-238.4538269042969	1366.768432617188	-1137.962280273438	-220.0065460205079	1371.160766601563	-990.6635742187502	-293.3509216308594	1219.62890625	-1059.490966796875	-438.8558959960939	956.210632324219	-1014.859558105469	-160.3700714111328	1121.577514648438	-1079.727294921875	-229.7476806640626	1186.55029296875	-1214.191162109375	-154.3761291503907	1118.71533203125	-1348.935424804688	-121.5972137451172	1156.784790039063	-1340.861450195313	-89.66638183593751	1121.714721679688	-1373.985107421875	-27.18206977844239	1137.9619140625	-1392.539672851563	-1.561975121498108	1076.439697265625	-1352.212158203125	244.3807373046876	1135.53466796875	-1388.78759765625	226.7140808105469	1153.84912109375	-1462.0634765625	319.8891296386719	1168.880004882813	-1415.162963867188	-187.0057830810547	1201.379760742188	-943.1065063476565	-61.89381408691408	1139.020874023438	-835.072937011719	-34.04419708251954	1169.277709960938	-863.1419677734377	6.870656013488771	1131.149169921875	-839.8461914062502	75.35460662841798	1138.835083007813	-855.0097656250002	76.07317352294923	1069.552856445313	-898.7398681640627	329.3264770507813	1118.634887695313	-946.5972900390627	333.3194885253907	1137.672729492188	-875.7351684570315	410.3129272460939	1139.746337890625	-945.4948730468752	-338.5530090332032	706.4476928710939	-1085.338134765625	-328.2063293457032	747.4395751953126	-863.0637207031252	-508.5153808593751	810.161071777344	-981.636901855469	-523.9445800781251	778.1115722656252	-1004.645629882813	-516.7167358398439	782.0532226562502	-949.715270996094	-345.7377319335938	581.4888916015626	-1157.372436523438	-262.0835571289063	571.1670532226564	-1165.522216796875	-237.1689147949219	612.0356445312501	-1154.86865234375	-232.1417388916016	519.2424926757814	-1169.154907226563	-108.7694244384766	414.7270507812501	-1151.36767578125	-63.66939163208009	434.5384826660157	-1025.670654296875	-147.6541442871094	273.8037414550782	-1027.949951171875	-179.1438446044922	225.4814910888672	-1092.543823242188	-167.5139923095703	222.5449523925782	-1048.984741210938	-226.8014068603516	177.4271392822266	-1010.5810546875	-322.2273254394532	113.9837799072266	-1053.696533203125	-297.3851013183594	138.2671813964844	-966.5695800781252	-190.0840911865235	62.385311126709	-978.774841308594	-191.864990234375	56.97473526000978	-1022.178649902344	-237.8139801025391	43.83631134033204	-1067.702514648438	-307.4703979492188	604.5740966796876	-755.4053344726564	-240.4633941650391	606.0330810546876	-761.0439453125001	-224.5187072753907	631.2095336914064	-774.6536865234377	-189.7109527587891	538.7671508789064	-764.5833129882814	-65.3852996826172	464.4026489257814	-788.294860839844	-54.52871322631837	463.8569335937501	-913.6900024414065	48.57920455932619	397.830535888672	-811.7266845703127	65.70137786865236	300.5791320800782	-762.1403198242189	94.81296539306642	328.5915527343751	-785.6141357421877	130.4481964111328	296.5632019042969	-820.895935058594	190.0941772460938	149.4046783447266	-780.295349121094	189.965560913086	164.4378204345703	-870.7852783203127	159.862777709961	80.96844482421876	-821.5551757812502	337.1718139648438	181.1413116455078	-872.2517700195315	341.8746032714844	195.2575378417969	-830.4292602539065	324.2416381835938	156.0331726074219	-766.6912841796876	
632	3.155	-59.32481384277345	1387.206298828125	-1106.555541992188	-238.3287506103516	1366.778442382813	-1137.9130859375	-219.9429016113282	1371.09326171875	-990.511657714844	-293.2167968750001	1219.556518554688	-1059.433349609375	-438.7876892089845	956.2211914062502	-1014.799377441406	-160.313232421875	1121.544677734375	-1079.674926757813	-229.6275787353516	1186.50390625	-1214.189453125	-154.3488311767578	1118.777465820313	-1348.924560546875	-121.4846267700196	1156.801147460938	-1340.852661132813	-89.56175231933595	1121.765991210938	-1373.988159179688	-26.98677444458009	1137.9482421875	-1392.626831054688	-1.471304655075073	1076.573852539063	-1352.383422851563	244.3589324951172	1135.525634765625	-1388.947998046875	226.2941284179688	1154.070922851563	-1462.048828125	319.9600524902344	1168.874755859375	-1415.220336914063	-186.3495025634766	1201.09912109375	-943.3616943359377	-61.64963912963869	1139.076782226563	-834.869567871094	-34.00199127197266	1169.21728515625	-863.0455322265627	6.96607828140259	1131.13232421875	-839.8096923828127	75.62857818603517	1138.819213867188	-855.1198730468752	76.21340179443361	1069.411743164063	-898.654235839844	329.3579711914063	1118.7890625	-946.6912231445315	333.3221130371094	1137.55908203125	-875.7720947265627	410.6798095703126	1139.489135742188	-945.9204711914065	-338.5863342285157	706.4356079101564	-1085.326293945313	-328.1753845214844	747.3670654296876	-863.0645751953127	-508.4512939453126	810.215270996094	-981.534606933594	-523.9279785156251	778.1619262695315	-1004.526428222656	-516.5490722656251	782.0642089843752	-949.5958251953127	-345.8863525390626	581.5098266601564	-1157.44970703125	-262.1812744140626	571.2096557617189	-1165.641357421875	-237.0926513671876	612.1281738281251	-1155.1796875	-232.2553710937501	519.2404785156251	-1169.377807617188	-108.8920593261719	414.7709960937501	-1151.642944335938	-63.91172409057619	434.5217285156251	-1025.86328125	-147.7864685058594	273.6985473632813	-1028.152587890625	-179.2998962402344	225.5824432373047	-1092.78076171875	-167.6460113525391	222.6497344970704	-1049.268798828125	-226.8117065429688	177.4385070800782	-1010.805969238281	-322.3049316406251	113.9724502563477	-1053.790405273438	-297.3397521972657	138.2861480712891	-966.630798339844	-189.9499664306641	62.51218032836915	-978.9750976562502	-192.0119628906251	56.85097122192384	-1022.186584472656	-237.8219604492188	43.77704238891602	-1067.729248046875	-307.4215393066407	604.5838012695314	-755.3483886718751	-240.3649139404297	605.9020385742189	-761.2909545898439	-224.4875030517579	631.1358032226564	-774.7241821289065	-189.6942901611328	538.7705688476564	-764.5882568359376	-65.45086669921876	464.2056274414064	-788.2717285156252	-54.50959777832033	463.8151245117189	-913.696960449219	48.55066680908205	397.7314758300782	-811.7113037109377	65.43287658691408	300.3383789062501	-762.1390380859376	94.60768890380861	328.3601074218751	-785.590270996094	130.0587463378907	296.4311828613282	-821.0047607421877	189.8494873046875	148.9893188476563	-780.5137939453127	189.728988647461	164.1399230957032	-870.7070922851565	159.7641906738282	80.77883148193361	-821.5618896484377	337.0094909667969	180.8948211669922	-872.2915039062502	341.6537170410157	194.9852142333985	-830.445251464844	324.1741943359376	155.7077331542969	-766.7962036132814	
633	3.16	-59.17451858520509	1387.162719726563	-1106.609741210938	-238.2003326416016	1366.7626953125	-1137.806396484375	-219.7834930419922	1371.019775390625	-990.5014648437502	-293.0700378417969	1219.504638671875	-1059.441528320313	-438.6488037109376	956.225280761719	-1014.713745117188	-160.1800994873047	1121.502807617188	-1079.641357421875	-229.4706420898438	1186.509399414063	-1214.118896484375	-154.2046051025391	1118.880737304688	-1348.930786132813	-121.412353515625	1156.863159179688	-1340.8349609375	-89.44284057617189	1121.859375	-1374.020874023438	-27.07551002502442	1138.089477539063	-1392.603515625	-1.509510159492493	1076.677368164063	-1352.409057617188	244.5034484863282	1135.540649414063	-1389.004638671875	226.3332977294922	1154.218383789063	-1462.052734375	319.9435424804688	1168.911743164063	-1415.248046875	-186.2245483398438	1201.0205078125	-943.413513183594	-61.5207862854004	1139.048706054688	-834.8636474609377	-33.95079421997071	1169.162109375	-862.9907836914065	7.319739818573	1131.143310546875	-839.9275512695315	75.68659973144533	1138.798828125	-855.092956542969	76.38680267333986	1069.300048828125	-898.7062988281252	329.6271057128907	1118.448974609375	-946.8569335937502	333.4114990234376	1137.531616210938	-875.9400634765627	410.6619262695314	1139.274169921875	-945.7595825195315	-338.7885131835938	706.2758789062501	-1085.429931640625	-328.0271606445313	747.2786254882814	-863.2061767578127	-508.4029235839845	810.224060058594	-981.4241333007815	-523.9180297851564	778.2652587890627	-1004.405151367188	-516.4434204101564	782.1956787109377	-949.5057373046877	-345.9603576660157	581.4982299804689	-1157.528930664063	-262.3275146484376	571.2930297851564	-1165.771728515625	-236.9383087158204	611.8651733398439	-1155.314575195313	-232.4973754882813	519.2500610351564	-1169.649658203125	-109.0586547851563	414.7860412597657	-1151.962646484375	-63.94530487060548	434.4016723632814	-1026.260864257813	-147.8258209228516	273.7550964355469	-1028.46435546875	-179.2710876464844	225.6725463867188	-1093.040649414063	-167.7983856201172	222.7164459228516	-1049.473999023438	-226.7977294921876	177.4325256347657	-1011	-322.3812561035157	113.9085388183594	-1053.903930664063	-297.3385314941407	138.337387084961	-966.781921386719	-190.0506591796875	62.47835159301759	-979.073669433594	-191.8780059814453	56.91971588134767	-1022.273742675781	-237.9085083007813	43.73292922973634	-1067.720703125	-307.4232177734376	604.5816040039064	-755.3460083007814	-240.2889251708985	605.8314208984376	-761.3541870117189	-224.4846496582032	631.0514526367189	-774.704528808594	-189.6404113769532	538.8178100585939	-764.5502929687501	-65.53440093994142	464.0948181152345	-788.0863037109377	-54.6014747619629	463.6230468750001	-913.7612915039065	48.559871673584	397.5495605468751	-811.7891845703127	65.28230285644533	300.1827087402344	-762.1360473632814	94.5459442138672	328.1742553710938	-785.7517700195315	129.8220977783203	296.1085815429688	-820.7977294921877	189.533920288086	148.7480773925782	-780.4773559570315	189.4506072998047	163.9242858886719	-870.624206542969	159.4131927490235	80.49778747558595	-821.4655761718752	336.8392639160157	180.6623687744141	-872.326354980469	341.5295410156251	194.7211914062501	-830.5187988281252	324.0140075683594	155.3372802734375	-766.9177246093751	
